<svg width="30" height="31" viewBox="0 0 30 31" fill="none" xmlns="http://www.w3.org/2000/svg">
<path d="M22.5 3.16663V5.66663M7.5 3.16663V5.66663" stroke="black" stroke-linecap="round" stroke-linejoin="round"/>
<path d="M14.9944 16.9166H15.0056M14.9944 21.9166H15.0056M19.9887 16.9166H20M10 16.9166H10.0112M10 21.9166H10.0112" stroke="black" stroke-width="1.5" stroke-linecap="round" stroke-linejoin="round"/>
<path d="M4.375 10.6666H25.625" stroke="black" stroke-width="1.5" stroke-linecap="round" stroke-linejoin="round"/>
<path d="M3.125 15.9706C3.125 10.5241 3.125 7.80073 4.69015 6.10868C6.2553 4.41663 8.77436 4.41663 13.8125 4.41663H16.1875C21.2256 4.41663 23.7448 4.41663 25.3099 6.10868C26.875 7.80073 26.875 10.5241 26.875 15.9706V16.6126C26.875 22.0593 26.875 24.7825 25.3099 26.4746C23.7448 28.1666 21.2256 28.1666 16.1875 28.1666H13.8125C8.77436 28.1666 6.2553 28.1666 4.69015 26.4746C3.125 24.7825 3.125 22.0593 3.125 16.6126V15.9706Z" stroke="black" stroke-linecap="round" stroke-linejoin="round"/>
<path d="M3.75 10.6666H26.25" stroke="black" stroke-linecap="round" stroke-linejoin="round"/>
</svg>
