<svg width="30" height="31" viewBox="0 0 30 31" fill="none" xmlns="http://www.w3.org/2000/svg">
<path d="M17.5921 5.52344C18.5236 4.51423 18.9894 4.00963 19.4843 3.71529C20.6784 3.00508 22.1489 2.98299 23.363 3.65703C23.8661 3.93638 24.3461 4.42678 25.3063 5.40758C26.2664 6.38838 26.7465 6.87878 27.0199 7.39279C27.6798 8.63303 27.6581 10.1351 26.9629 11.355C26.6748 11.8606 26.1808 12.3364 25.1929 13.2879L13.4383 24.6095C11.5661 26.4128 10.63 27.3144 9.46008 27.7713C8.29015 28.2283 7.004 28.1946 4.4317 28.1274L4.08173 28.1183C3.29864 28.0978 2.90709 28.0875 2.67949 27.8291C2.45188 27.5709 2.48295 27.172 2.5451 26.3744L2.57885 25.9413C2.75376 23.696 2.84121 22.5735 3.27964 21.5644C3.71805 20.5553 4.4743 19.736 5.98679 18.0973L17.5921 5.52344Z" stroke="#010101" stroke-linejoin="round"/>
<path d="M16.25 5.66663L25 14.4166" stroke="#010101" stroke-linejoin="round"/>
<path d="M17.5 28.1666H27.5" stroke="#010101" stroke-linecap="round" stroke-linejoin="round"/>
</svg>
